<?xml version="1.0" encoding="utf-8"?>
<svg version="1.1" xmlns:xlink="http://www.w3.org/1999/xlink" width="18px" height="21px" xmlns="http://www.w3.org/2000/svg">
  <g transform="matrix(1 0 0 1 -99 -252 )">
    <path d="M 17.88046875 15.1826171875  C 17.96015625 15.8707682291667  18 16.6022135416667  18 17.376953125  C 18 18.3704427083333  17.70703125 19.22265625  17.12109375 19.93359375  C 16.53515625 20.64453125  15.8296875 21  15.0046875 21  L 2.9953125 21  C 2.1703125 21  1.46484375 20.64453125  0.87890625 19.93359375  C 0.29296875 19.22265625  0 18.3704427083333  0 17.376953125  C 0 16.6022135416667  0.0398437500000001 15.8707682291667  0.11953125 15.1826171875  C 0.19921875 14.4944661458333  0.346875 13.8017578125  0.5625 13.1044921875  C 0.778125 12.4072265625  1.05234375 11.8102213541667  1.38515625 11.3134765625  C 1.71796875 10.8167317708333  2.15859375 10.4111328125  2.70703125 10.0966796875  C 3.25546875 9.7822265625  3.8859375 9.625  4.5984375 9.625  C 5.8265625 10.7916666666667  7.29375 11.375  9 11.375  C 10.70625 11.375  12.1734375 10.7916666666667  13.4015625 9.625  C 14.1140625 9.625  14.74453125 9.7822265625  15.29296875 10.0966796875  C 15.84140625 10.4111328125  16.28203125 10.8167317708333  16.61484375 11.3134765625  C 16.94765625 11.8102213541667  17.221875 12.4072265625  17.4375 13.1044921875  C 17.653125 13.8017578125  17.80078125 14.4944661458333  17.88046875 15.1826171875  Z M 12.81796875 1.5380859375  C 13.87265625 2.5634765625  14.4 3.80078125  14.4 5.25  C 14.4 6.69921875  13.87265625 7.9365234375  12.81796875 8.9619140625  C 11.76328125 9.9873046875  10.490625 10.5  9 10.5  C 7.509375 10.5  6.23671875 9.9873046875  5.18203125 8.9619140625  C 4.12734375 7.9365234375  3.6 6.69921875  3.6 5.25  C 3.6 3.80078125  4.12734375 2.5634765625  5.18203125 1.5380859375  C 6.23671875 0.5126953125  7.509375 0  9 0  C 10.490625 0  11.76328125 0.5126953125  12.81796875 1.5380859375  Z " fill-rule="nonzero" fill="#000000" stroke="none" transform="matrix(1 0 0 1 99 252 )" />
  </g>
</svg>