<?xml version="1.0" encoding="utf-8"?>
<svg version="1.1" xmlns:xlink="http://www.w3.org/1999/xlink" width="12px" height="22px" xmlns="http://www.w3.org/2000/svg">
  <g transform="matrix(1 0 0 1 -377 -302 )">
    <path d="M 6.8828125 20.77109375  C 7.12760416666667 20.5018229166667  7.25 20.178125  7.25 19.8  C 7.25 19.421875  7.12760416666667 19.0981770833333  6.8828125 18.82890625  C 6.63802083333333 18.5596354166667  6.34375 18.425  6 18.425  C 5.65625 18.425  5.36197916666667 18.5596354166667  5.1171875 18.82890625  C 4.87239583333333 19.0981770833333  4.75 19.421875  4.75 19.8  C 4.75 20.178125  4.87239583333333 20.5018229166667  5.1171875 20.77109375  C 5.36197916666667 21.0403645833333  5.65625 21.175  6 21.175  C 6.34375 21.175  6.63802083333333 21.0403645833333  6.8828125 20.77109375  Z M 10.3515625 17.43671875  C 10.4505208333333 17.3278645833333  10.5 17.1989583333333  10.5 17.05  L 10.5 4.95  C 10.5 4.80104166666666  10.4505208333333 4.67213541666666  10.3515625 4.56328125  C 10.2526041666667 4.45442708333333  10.1354166666667 4.4  10 4.4  L 2 4.4  C 1.86458333333333 4.4  1.74739583333333 4.45442708333333  1.6484375 4.56328125  C 1.54947916666667 4.67213541666666  1.5 4.80104166666666  1.5 4.95  L 1.5 17.05  C 1.5 17.1989583333333  1.54947916666667 17.3278645833333  1.6484375 17.43671875  C 1.74739583333333 17.5455729166667  1.86458333333333 17.6  2 17.6  L 10 17.6  C 10.1354166666667 17.6  10.2526041666667 17.5455729166667  10.3515625 17.43671875  Z M 7.25 2.75  C 7.41666666666667 2.75  7.5 2.65833333333333  7.5 2.475  C 7.5 2.29166666666667  7.41666666666667 2.2  7.25 2.2  L 4.75 2.2  C 4.58333333333333 2.2  4.5 2.29166666666667  4.5 2.475  C 4.5 2.65833333333333  4.58333333333333 2.75  4.75 2.75  L 7.25 2.75  Z M 11.40625 0.653125  C 11.8020833333333 1.08854166666667  12 1.60416666666667  12 2.2  L 12 19.8  C 12 20.3958333333333  11.8020833333333 20.9114583333333  11.40625 21.346875  C 11.0104166666667 21.7822916666667  10.5416666666667 22  10 22  L 2 22  C 1.45833333333333 22  0.989583333333333 21.7822916666667  0.59375 21.346875  C 0.197916666666667 20.9114583333333  0 20.3958333333333  0 19.8  L 0 2.2  C 0 1.60416666666667  0.197916666666667 1.08854166666667  0.59375 0.653125  C 0.989583333333333 0.217708333333331  1.45833333333333 0  2 0  L 10 0  C 10.5416666666667 0  11.0104166666667 0.217708333333331  11.40625 0.653125  Z " fill-rule="nonzero" fill="#7f7f7f" stroke="none" transform="matrix(1 0 0 1 377 302 )" />
  </g>
</svg>