<?xml version="1.0" encoding="utf-8"?>
<svg version="1.1" xmlns:xlink="http://www.w3.org/1999/xlink" width="17px" height="22px" xmlns="http://www.w3.org/2000/svg">
  <g transform="matrix(1 0 0 1 -374 -423 )">
    <path d="M 4.72222222222222 7  L 4.72222222222222 10  L 12.2777777777778 10  L 12.2777777777778 7  C 12.2777777777778 5.89583333333333  11.9088541666667 4.953125  11.1710069444444 4.171875  C 10.4331597222222 3.390625  9.54282407407408 3  8.5 3  C 7.45717592592593 3  6.56684027777778 3.390625  5.82899305555556 4.171875  C 5.09114583333333 4.953125  4.72222222222222 5.89583333333333  4.72222222222222 7  Z M 16.5868055555556 10.4375  C 16.8622685185185 10.7291666666667  17 11.0833333333333  17 11.5  L 17 20.5  C 17 20.9166666666667  16.8622685185185 21.2708333333333  16.5868055555556 21.5625  C 16.3113425925926 21.8541666666667  15.9768518518519 22  15.5833333333333 22  L 1.41666666666667 22  C 1.02314814814815 22  0.688657407407408 21.8541666666667  0.413194444444444 21.5625  C 0.137731481481481 21.2708333333333  0 20.9166666666667  0 20.5  L 0 11.5  C 0 11.0833333333333  0.137731481481481 10.7291666666667  0.413194444444444 10.4375  C 0.688657407407408 10.1458333333333  1.02314814814815 10  1.41666666666667 10  L 1.88888888888889 10  L 1.88888888888889 7  C 1.88888888888889 5.08333333333333  2.53819444444444 3.4375  3.83680555555556 2.0625  C 5.13541666666667 0.6875  6.68981481481481 0  8.5 0  C 10.3101851851852 0  11.8645833333333 0.6875  13.1631944444444 2.0625  C 14.4618055555556 3.4375  15.1111111111111 5.08333333333333  15.1111111111111 7  L 15.1111111111111 10  L 15.5833333333333 10  C 15.9768518518519 10  16.3113425925926 10.1458333333333  16.5868055555556 10.4375  Z " fill-rule="nonzero" fill="#7f7f7f" stroke="none" transform="matrix(1 0 0 1 374 423 )" />
  </g>
</svg>