<?xml version="1.0" encoding="utf-8"?>
<svg version="1.1" xmlns:xlink="http://www.w3.org/1999/xlink" width="27px" height="22px" xmlns="http://www.w3.org/2000/svg">
  <g transform="matrix(1 0 0 1 -374 -379 )">
    <path d="M 25.4933035714286 8.453125  C 26.0658482142857 8.046875  26.5680803571429 7.59375  27 7.09375  L 27 19.5  C 27 20.1875  26.7639508928571 20.7760416666667  26.2918526785714 21.265625  C 25.8197544642857 21.7552083333333  25.2522321428571 22  24.5892857142857 22  L 2.41071428571429 22  C 1.74776785714286 22  1.18024553571429 21.7552083333333  0.708147321428572 21.265625  C 0.236049107142857 20.7760416666667  0 20.1875  0 19.5  L 0 7.09375  C 0.441964285714286 7.60416666666667  0.94921875 8.05729166666666  1.52176339285714 8.453125  C 5.15792410714286 11.015625  7.65401785714286 12.8125  9.01004464285714 13.84375  C 9.58258928571429 14.28125  10.0471540178571 14.6223958333333  10.4037388392857 14.8671875  C 10.7603236607143 15.1119791666667  11.2349330357143 15.3619791666667  11.8275669642857 15.6171875  C 12.4202008928571 15.8723958333333  12.97265625 16  13.4849330357143 16  L 13.5 16  L 13.5150669642857 16  C 14.02734375 16  14.5797991071429 15.8723958333333  15.1724330357143 15.6171875  C 15.7650669642857 15.3619791666667  16.2396763392857 15.1119791666667  16.5962611607143 14.8671875  C 16.9528459821429 14.6223958333333  17.4174107142857 14.28125  17.9899553571429 13.84375  C 19.6975446428571 12.5625  22.1986607142857 10.765625  25.4933035714286 8.453125  Z M 26.2843191964286 0.734374999999999  C 26.7614397321429 1.22395833333333  27 1.8125  27 2.5  C 27 3.32291666666666  26.75390625 4.109375  26.26171875 4.859375  C 25.76953125 5.609375  25.1568080357143 6.25  24.4235491071429 6.78125  C 20.6467633928571 9.5  18.2963169642857 11.1927083333333  17.3722098214286 11.859375  C 17.2717633928571 11.9322916666667  17.0583147321429 12.0911458333333  16.7318638392857 12.3359375  C 16.4054129464286 12.5807291666667  16.1342075892857 12.7786458333333  15.9182477678571 12.9296875  C 15.7022879464286 13.0807291666667  15.4411272321429 13.25  15.134765625 13.4375  C 14.8284040178571 13.625  14.5396205357143 13.765625  14.2684151785714 13.859375  C 13.9972098214286 13.953125  13.74609375 14  13.5150669642857 14  L 13.5 14  L 13.4849330357143 14  C 13.25390625 14  13.0027901785714 13.953125  12.7315848214286 13.859375  C 12.4603794642857 13.765625  12.1715959821429 13.625  11.865234375 13.4375  C 11.5588727678571 13.25  11.2977120535714 13.0807291666667  11.0817522321429 12.9296875  C 10.8657924107143 12.7786458333333  10.5945870535714 12.5807291666667  10.2681361607143 12.3359375  C 9.94168526785714 12.0911458333333  9.72823660714286 11.9322916666667  9.62779017857143 11.859375  C 8.71372767857143 11.1927083333333  7.39787946428571 10.2421875  5.68024553571429 9.0078125  C 3.96261160714286 7.7734375  2.93303571428571 7.03125  2.59151785714286 6.78125  C 1.96875 6.34375  1.38113839285714 5.7421875  0.828683035714286 4.9765625  C 0.276227678571429 4.2109375  0 3.5  0 2.84375  C 0 2.03125  0.208426339285714 1.35416666666666  0.625279017857143 0.812500000000001  C 1.04213169642857 0.270833333333331  1.63727678571429 0  2.41071428571429 0  L 24.5892857142857 0  C 25.2421875 0  25.8071986607143 0.244791666666664  26.2843191964286 0.734374999999999  Z " fill-rule="nonzero" fill="#7f7f7f" stroke="none" transform="matrix(1 0 0 1 374 379 )" />
  </g>
</svg>