<?xml version="1.0" encoding="utf-8"?>
<svg version="1.1" xmlns:xlink="http://www.w3.org/1999/xlink" width="18px" height="22px" xmlns="http://www.w3.org/2000/svg">
  <g transform="matrix(1 0 0 1 -374 -259 )">
    <path d="M 17.88046875 15.9055989583333  C 17.96015625 16.6265190972222  18 17.3927951388889  18 18.2044270833333  C 18 19.2452256944444  17.70703125 20.1380208333333  17.12109375 20.8828125  C 16.53515625 21.6276041666667  15.8296875 22  15.0046875 22  L 2.9953125 22  C 2.1703125 22  1.46484375 21.6276041666667  0.87890625 20.8828125  C 0.29296875 20.1380208333333  0 19.2452256944444  0 18.2044270833333  C 0 17.3927951388889  0.0398437500000001 16.6265190972222  0.11953125 15.9055989583333  C 0.19921875 15.1846788194444  0.346875 14.458984375  0.5625 13.728515625  C 0.778125 12.998046875  1.05234375 12.3726128472222  1.38515625 11.8522135416667  C 1.71796875 11.3318142361111  2.15859375 10.9069010416667  2.70703125 10.5774739583333  C 3.25546875 10.248046875  3.8859375 10.0833333333333  4.5984375 10.0833333333333  C 5.8265625 11.3055555555556  7.29375 11.9166666666667  9 11.9166666666667  C 10.70625 11.9166666666667  12.1734375 11.3055555555556  13.4015625 10.0833333333333  C 14.1140625 10.0833333333333  14.74453125 10.248046875  15.29296875 10.5774739583333  C 15.84140625 10.9069010416667  16.28203125 11.3318142361111  16.61484375 11.8522135416667  C 16.94765625 12.3726128472222  17.221875 12.998046875  17.4375 13.728515625  C 17.653125 14.458984375  17.80078125 15.1846788194444  17.88046875 15.9055989583333  Z M 12.81796875 1.611328125  C 13.87265625 2.685546875  14.4 3.98177083333333  14.4 5.5  C 14.4 7.01822916666667  13.87265625 8.314453125  12.81796875 9.388671875  C 11.76328125 10.462890625  10.490625 11  9 11  C 7.509375 11  6.23671875 10.462890625  5.18203125 9.388671875  C 4.12734375 8.314453125  3.6 7.01822916666667  3.6 5.5  C 3.6 3.98177083333333  4.12734375 2.685546875  5.18203125 1.611328125  C 6.23671875 0.537109375  7.509375 0  9 0  C 10.490625 0  11.76328125 0.537109375  12.81796875 1.611328125  Z " fill-rule="nonzero" fill="#7f7f7f" stroke="none" transform="matrix(1 0 0 1 374 259 )" />
  </g>
</svg>