<?xml version="1.0" encoding="utf-8"?>
<svg version="1.1" xmlns:xlink="http://www.w3.org/1999/xlink" width="18px" height="21px" xmlns="http://www.w3.org/2000/svg">
  <g transform="matrix(1 0 0 1 -99 -298 )">
    <path d="M 5 6.68181818181818  L 5 9.54545454545455  L 13 9.54545454545455  L 13 6.68181818181818  C 13 5.62784090909091  12.609375 4.72798295454545  11.828125 3.98224431818182  C 11.046875 3.23650568181818  10.1041666666667 2.86363636363636  9 2.86363636363636  C 7.89583333333333 2.86363636363636  6.953125 3.23650568181818  6.171875 3.98224431818182  C 5.390625 4.72798295454545  5 5.62784090909091  5 6.68181818181818  Z M 17.5625 9.96306818181818  C 17.8541666666667 10.2414772727273  18 10.5795454545455  18 10.9772727272727  L 18 19.5681818181818  C 18 19.9659090909091  17.8541666666667 20.3039772727273  17.5625 20.5823863636364  C 17.2708333333333 20.8607954545455  16.9166666666667 21  16.5 21  L 1.5 21  C 1.08333333333333 21  0.729166666666667 20.8607954545455  0.4375 20.5823863636364  C 0.145833333333333 20.3039772727273  0 19.9659090909091  0 19.5681818181818  L 0 10.9772727272727  C 0 10.5795454545455  0.145833333333333 10.2414772727273  0.4375 9.96306818181818  C 0.729166666666667 9.68465909090909  1.08333333333333 9.54545454545455  1.5 9.54545454545455  L 2 9.54545454545455  L 2 6.68181818181818  C 2 4.85227272727272  2.6875 3.28125  4.0625 1.96875  C 5.4375 0.65625  7.08333333333333 0  9 0  C 10.9166666666667 0  12.5625 0.65625  13.9375 1.96875  C 15.3125 3.28125  16 4.85227272727272  16 6.68181818181818  L 16 9.54545454545455  L 16.5 9.54545454545455  C 16.9166666666667 9.54545454545455  17.2708333333333 9.68465909090909  17.5625 9.96306818181818  Z " fill-rule="nonzero" fill="#000000" stroke="none" transform="matrix(1 0 0 1 99 298 )" />
  </g>
</svg>