<?xml version="1.0" encoding="utf-8"?>
<svg version="1.1" xmlns:xlink="http://www.w3.org/1999/xlink" width="28px" height="23px" xmlns="http://www.w3.org/2000/svg">
  <g transform="matrix(1 0 0 1 140 -140 )">
    <path d="M 11.3928571428571 21.032421875  C 11.3809523809524 21.0983072916667  11.3928571428571 21.1791666666667  11.4285714285714 21.275  C 11.4285714285714 21.3229166666667  11.4345238095238 21.4427083333333  11.4464285714286 21.634375  C 11.4583333333333 21.8260416666667  11.4613095238095 21.984765625  11.4553571428571 22.110546875  C 11.4494047619048 22.236328125  11.4315476190476 22.3770833333333  11.4017857142857 22.5328125  C 11.3720238095238 22.6885416666667  11.3125 22.8053385416667  11.2232142857143 22.883203125  C 11.1339285714286 22.9610677083333  11.0119047619048 23  10.8571428571429 23  L 5.14285714285714 23  C 3.72619047619048 23  2.51488095238095 22.4938802083333  1.50892857142857 21.481640625  C 0.50297619047619 20.4694010416667  0 19.2505208333333  0 17.825  L 0 5.175  C 0 3.74947916666666  0.50297619047619 2.53059895833333  1.50892857142857 1.518359375  C 2.51488095238095 0.506119791666663  3.72619047619048 0  5.14285714285714 0  L 10.8571428571429 0  C 11.0119047619048 0  11.1458333333333 0.0569010416666634  11.2589285714286 0.170703125000001  C 11.3720238095238 0.284505208333332  11.4285714285714 0.419270833333332  11.4285714285714 0.575000000000001  C 11.4285714285714 0.622916666666664  11.4345238095238 0.742708333333332  11.4464285714286 0.934375000000001  C 11.4583333333333 1.12604166666666  11.4613095238095 1.284765625  11.4553571428571 1.410546875  C 11.4494047619048 1.536328125  11.4315476190476 1.67708333333333  11.4017857142857 1.8328125  C 11.3720238095238 1.98854166666666  11.3125 2.10533854166666  11.2232142857143 2.183203125  C 11.1339285714286 2.26106770833333  11.0119047619048 2.3  10.8571428571429 2.3  L 5.14285714285714 2.3  C 4.35714285714286 2.3  3.68452380952381 2.58151041666666  3.125 3.14453125  C 2.56547619047619 3.70755208333333  2.28571428571429 4.384375  2.28571428571429 5.175  L 2.28571428571429 17.825  C 2.28571428571429 18.615625  2.56547619047619 19.2924479166667  3.125 19.85546875  C 3.68452380952381 20.4184895833333  4.35714285714286 20.7  5.14285714285714 20.7  L 10.2857142857143 20.7  L 10.4821428571429 20.7  L 10.7142857142857 20.7  C 10.7142857142857 20.7  10.7827380952381 20.7059895833333  10.9196428571429 20.71796875  C 11.0565476190476 20.7299479166667  11.125 20.7479166666667  11.125 20.771875  C 11.125 20.7958333333333  11.172619047619 20.8287760416667  11.2678571428571 20.870703125  C 11.3630952380952 20.9126302083333  11.4047619047619 20.9665364583333  11.3928571428571 21.032421875  Z M 27.6607142857143 10.69140625  C 27.8869047619048 10.9190104166667  28 11.1885416666667  28 11.5  C 28 11.8114583333333  27.8869047619048 12.0809895833333  27.6607142857143 12.30859375  L 17.9464285714286 22.08359375  C 17.7202380952381 22.3111979166667  17.452380952381 22.425  17.1428571428571 22.425  C 16.8333333333333 22.425  16.5654761904762 22.3111979166667  16.3392857142857 22.08359375  C 16.1130952380952 21.8559895833333  16 21.5864583333333  16 21.275  L 16 16.1  L 8 16.1  C 7.69047619047619 16.1  7.42261904761905 15.9861979166667  7.19642857142857 15.75859375  C 6.97023809523809 15.5309895833333  6.85714285714286 15.2614583333333  6.85714285714286 14.95  L 6.85714285714286 8.05  C 6.85714285714286 7.73854166666666  6.97023809523809 7.46901041666666  7.19642857142857 7.24140625  C 7.42261904761905 7.01380208333333  7.69047619047619 6.9  8 6.9  L 16 6.9  L 16 1.725  C 16 1.41354166666666  16.1130952380952 1.14401041666666  16.3392857142857 0.916406249999999  C 16.5654761904762 0.688802083333332  16.8333333333333 0.575000000000001  17.1428571428571 0.575000000000001  C 17.452380952381 0.575000000000001  17.7202380952381 0.688802083333332  17.9464285714286 0.916406249999999  L 27.6607142857143 10.69140625  Z " fill-rule="nonzero" fill="#7f7f7f" stroke="none" transform="matrix(1 0 0 1 -140 140 )" />
  </g>
</svg>