<?xml version="1.0" encoding="utf-8"?>
<svg version="1.1" xmlns:xlink="http://www.w3.org/1999/xlink" width="26px" height="32px" xmlns="http://www.w3.org/2000/svg">
  <g>
    <path d="M 25.82734375 23.1354166666667  C 25.9424479166667 24.1840277777778  26 25.2986111111111  26 26.4791666666667  C 26 27.9930555555556  25.5768229166667 29.2916666666667  24.73046875 30.375  C 23.8841145833333 31.4583333333333  22.8651041666667 32  21.6734375 32  L 4.3265625 32  C 3.13489583333333 32  2.11588541666667 31.4583333333333  1.26953125 30.375  C 0.423177083333333 29.2916666666667  0 27.9930555555556  0 26.4791666666667  C 0 25.2986111111111  0.0575520833333335 24.1840277777778  0.17265625 23.1354166666667  C 0.287760416666667 22.0868055555556  0.501041666666667 21.03125  0.8125 19.96875  C 1.12395833333333 18.90625  1.52005208333333 17.9965277777778  2.00078125 17.2395833333333  C 2.48151041666667 16.4826388888889  3.11796875 15.8645833333333  3.91015625 15.3854166666667  C 4.70234375 14.90625  5.61302083333333 14.6666666666667  6.6421875 14.6666666666667  C 8.41614583333334 16.4444444444444  10.5354166666667 17.3333333333333  13 17.3333333333333  C 15.4645833333333 17.3333333333333  17.5838541666667 16.4444444444444  19.3578125 14.6666666666667  C 20.3869791666667 14.6666666666667  21.29765625 14.90625  22.08984375 15.3854166666667  C 22.88203125 15.8645833333333  23.5184895833333 16.4826388888889  23.99921875 17.2395833333333  C 24.4799479166667 17.9965277777778  24.8760416666667 18.90625  25.1875 19.96875  C 25.4989583333333 21.03125  25.7122395833333 22.0868055555556  25.82734375 23.1354166666667  Z M 18.51484375 2.34375  C 20.03828125 3.90625  20.8 5.79166666666667  20.8 8  C 20.8 10.2083333333333  20.03828125 12.09375  18.51484375 13.65625  C 16.99140625 15.21875  15.153125 16  13 16  C 10.846875 16  9.00859375 15.21875  7.48515625 13.65625  C 5.96171875 12.09375  5.2 10.2083333333333  5.2 8  C 5.2 5.79166666666667  5.96171875 3.90625  7.48515625 2.34375  C 9.00859375 0.78125  10.846875 0  13 0  C 15.153125 0  16.99140625 0.78125  18.51484375 2.34375  Z " fill-rule="nonzero" fill="#fe0000" stroke="none" />
  </g>
</svg>