<?xml version="1.0" encoding="utf-8"?>
<svg version="1.1" xmlns:xlink="http://www.w3.org/1999/xlink" width="39px" height="32px" xmlns="http://www.w3.org/2000/svg">
  <g transform="matrix(1 0 0 1 -1299 -44 )">
    <path d="M 14.109375 27.0454545454545  C 14.703125 27.6212121212121  15 28.3030303030303  15 29.0909090909091  C 15 29.8787878787879  14.703125 30.5606060606061  14.109375 31.1363636363636  C 13.515625 31.7121212121212  12.8125 32  12 32  C 11.1875 32  10.484375 31.7121212121212  9.890625 31.1363636363636  C 9.296875 30.5606060606061  9 29.8787878787879  9 29.0909090909091  C 9 28.3030303030303  9.296875 27.6212121212121  9.890625 27.0454545454545  C 10.484375 26.469696969697  11.1875 26.1818181818182  12 26.1818181818182  C 12.8125 26.1818181818182  13.515625 26.469696969697  14.109375 27.0454545454545  Z M 35.109375 27.0454545454545  C 35.703125 27.6212121212121  36 28.3030303030303  36 29.0909090909091  C 36 29.8787878787879  35.703125 30.5606060606061  35.109375 31.1363636363636  C 34.515625 31.7121212121212  33.8125 32  33 32  C 32.1875 32  31.484375 31.7121212121212  30.890625 31.1363636363636  C 30.296875 30.5606060606061  30 29.8787878787879  30 29.0909090909091  C 30 28.3030303030303  30.296875 27.6212121212121  30.890625 27.0454545454545  C 31.484375 26.469696969697  32.1875 26.1818181818182  33 26.1818181818182  C 33.8125 26.1818181818182  34.515625 26.469696969697  35.109375 27.0454545454545  Z M 38.5546875 3.34090909090909  C 38.8515625 3.62878787878788  39 3.96969696969697  39 4.36363636363636  L 39 16  C 39 16.3636363636364  38.87109375 16.6856060606061  38.61328125 16.9659090909091  C 38.35546875 17.2462121212121  38.0390625 17.4090909090909  37.6640625 17.4545454545455  L 13.1953125 20.2272727272727  C 13.3984375 21.1363636363636  13.5 21.6666666666667  13.5 21.8181818181818  C 13.5 22.0606060606061  13.3125 22.5454545454545  12.9375 23  L 34.5 23  C 34.90625 23.2727272727273  35.2578125 23.4166666666667  35.5546875 23.7045454545455  C 35.8515625 23.9924242424242  36 24.3333333333333  36 24.7272727272727  C 36 25.1212121212121  35.8515625 25.4621212121212  35.5546875 25.75  C 35.2578125 26.0378787878788  34.90625 26.1818181818182  34.5 26  L 10.5 26  C 10.09375 26.1818181818182  9.7421875 26.0378787878788  9.4453125 25.75  C 9.1484375 25.4621212121212  9 25.1212121212121  9 24.7272727272727  C 9 24.5606060606061  9.0625 24.3219696969697  9.1875 24.0113636363636  C 9.3125 23.7007575757576  9.4375 23.4280303030303  9.5625 23.1931818181818  C 9.6875 22.9583333333333  9.85546875 22.655303030303  10.06640625 22.2840909090909  C 10.27734375 21.9128787878788  10.3984375 21.6893939393939  10.4296875 21.6136363636364  L 6.28125 2.90909090909091  L 1.5 2.90909090909091  C 1.09375 2.90909090909091  0.7421875 2.76515151515151  0.4453125 2.47727272727273  C 0.1484375 2.18939393939394  0 1.84848484848485  0 1.45454545454545  C 0 1.06060606060606  0.1484375 0.719696969696965  0.4453125 0.431818181818183  C 0.7421875 0.143939393939391  1.09375 0  1.5 0  L 7.5 0  C 7.75 0  7.97265625 0.0492424242424221  8.16796875 0.147727272727273  C 8.36328125 0.246212121212121  8.515625 0.363636363636363  8.625 0.5  C 8.734375 0.636363636363637  8.8359375 0.821969696969692  8.9296875 1.05681818181818  C 9.0234375 1.29166666666666  9.0859375 1.48863636363636  9.1171875 1.64772727272727  C 9.1484375 1.80681818181818  9.19140625 2.03030303030303  9.24609375 2.31818181818182  C 9.30078125 2.6060606060606  9.3359375 2.8030303030303  9.3515625 3  L 37.5 3  C 37.90625 2.90909090909091  38.2578125 3.0530303030303  38.5546875 3.34090909090909  Z " fill-rule="nonzero" fill="#fe1010" stroke="none" transform="matrix(1 0 0 1 1299 44 )" />
  </g>
</svg>