<?xml version="1.0" encoding="utf-8"?>
<svg version="1.1" xmlns:xlink="http://www.w3.org/1999/xlink" width="28px" height="28px" xmlns="http://www.w3.org/2000/svg">
  <g transform="matrix(1 0 0 1 140 -98 )">
    <path d="M 17.2994791666667 17.2994791666667  C 18.2109375 16.3880208333333  18.6666666666667 15.2881944444444  18.6666666666667 14  C 18.6666666666667 12.7118055555556  18.2109375 11.6119791666667  17.2994791666667 10.7005208333333  C 16.3880208333333 9.7890625  15.2881944444444 9.33333333333333  14 9.33333333333333  C 12.7118055555556 9.33333333333333  11.6119791666667 9.7890625  10.7005208333333 10.7005208333333  C 9.7890625 11.6119791666667  9.33333333333333 12.7118055555556  9.33333333333333 14  C 9.33333333333333 15.2881944444444  9.7890625 16.3880208333333  10.7005208333333 17.2994791666667  C 11.6119791666667 18.2109375  12.7118055555556 18.6666666666667  14 18.6666666666667  C 15.2881944444444 18.6666666666667  16.3880208333333 18.2109375  17.2994791666667 17.2994791666667  Z M 27.8541666666667 11.5846354166667  C 27.9513888888889 11.7122395833333  28 11.8550347222222  28 12.0130208333333  L 28 16.0598958333333  C 28 16.2057291666667  27.9513888888889 16.3454861111111  27.8541666666667 16.4791666666667  C 27.7569444444444 16.6128472222222  27.6354166666667 16.6918402777778  27.4895833333333 16.7161458333333  L 24.1171875 17.2265625  C 23.8862847222222 17.8828125  23.6493055555556 18.4357638888889  23.40625 18.8854166666667  C 23.8315972222222 19.4930555555556  24.4817708333333 20.3315972222222  25.3567708333333 21.4010416666667  C 25.4782986111111 21.546875  25.5390625 21.6987847222222  25.5390625 21.8567708333333  C 25.5390625 22.0147569444444  25.484375 22.1545138888889  25.375 22.2760416666667  C 25.046875 22.7256944444444  24.4453125 23.3819444444444  23.5703125 24.2447916666667  C 22.6953125 25.1076388888889  22.1241319444444 25.5390625  21.8567708333333 25.5390625  C 21.7109375 25.5390625  21.5529513888889 25.484375  21.3828125 25.375  L 18.8671875 23.40625  C 18.3324652777778 23.6857638888889  17.7795138888889 23.9166666666667  17.2083333333333 24.0989583333333  C 17.0138888888889 25.7517361111111  16.8376736111111 26.8819444444444  16.6796875 27.4895833333333  C 16.5946180555556 27.8298611111111  16.3758680555556 28  16.0234375 28  L 11.9765625 28  C 11.8064236111111 28  11.6575520833333 27.9483506944444  11.5299479166667 27.8450520833333  C 11.40234375 27.7417534722222  11.3324652777778 27.6111111111111  11.3203125 27.453125  L 10.8098958333333 24.0989583333333  C 10.2144097222222 23.9045138888889  9.66753472222222 23.6796875  9.16927083333333 23.4244791666667  L 6.59895833333333 25.375  C 6.47743055555556 25.484375  6.32552083333333 25.5390625  6.14322916666667 25.5390625  C 5.97309027777778 25.5390625  5.82118055555556 25.4722222222222  5.6875 25.3385416666667  C 4.15625 23.953125  3.15364583333333 22.9322916666667  2.6796875 22.2760416666667  C 2.59461805555556 22.1545138888889  2.55208333333333 22.0147569444444  2.55208333333333 21.8567708333333  C 2.55208333333333 21.7109375  2.60069444444445 21.5711805555556  2.69791666666667 21.4375  C 2.88020833333333 21.1822916666667  3.19010416666667 20.7782118055556  3.62760416666667 20.2252604166667  C 4.06510416666667 19.6723090277778  4.39322916666667 19.2439236111111  4.61197916666667 18.9401041666667  C 4.28385416666667 18.3324652777778  4.03472222222222 17.7309027777778  3.86458333333333 17.1354166666667  L 0.528645833333333 16.6432291666667  C 0.370659722222222 16.6189236111111  0.243055555555556 16.54296875  0.145833333333333 16.4153645833333  C 0.0486111111111111 16.2877604166667  0 16.1449652777778  0 15.9869791666667  L 0 11.9401041666667  C 0 11.7942708333333  0.0486111111111111 11.6545138888889  0.145833333333333 11.5208333333333  C 0.243055555555556 11.3871527777778  0.358506944444444 11.3081597222222  0.4921875 11.2838541666667  L 3.8828125 10.7734375  C 4.05295138888889 10.2144097222222  4.28993055555556 9.65538194444444  4.59375 9.09635416666667  C 4.10763888888889 8.40364583333333  3.45746527777778 7.56510416666667  2.64322916666667 6.58072916666667  C 2.52170138888889 6.43489583333333  2.4609375 6.2890625  2.4609375 6.14322916666667  C 2.4609375 6.02170138888889  2.515625 5.88194444444444  2.625 5.72395833333333  C 2.94097222222222 5.28645833333333  3.53949652777778 4.63324652777778  4.42057291666667 3.76432291666667  C 5.30164930555556 2.89539930555555  5.87586805555556 2.4609375  6.14322916666667 2.4609375  C 6.30121527777778 2.4609375  6.45920138888889 2.52170138888889  6.6171875 2.64322916666667  L 9.1328125 4.59375  C 9.66753472222222 4.31423611111111  10.2204861111111 4.08333333333333  10.7916666666667 3.90104166666667  C 10.9861111111111 2.24826388888889  11.1623263888889 1.11805555555555  11.3203125 0.510416666666666  C 11.4053819444444 0.170138888888888  11.6241319444444 0  11.9765625 0  L 16.0234375 0  C 16.1935763888889 0  16.3424479166667 0.0516493055555531  16.4700520833333 0.154947916666666  C 16.59765625 0.258246527777775  16.6675347222222 0.388888888888888  16.6796875 0.546875  L 17.1901041666667 3.90104166666667  C 17.7855902777778 4.09548611111111  18.3324652777778 4.3203125  18.8307291666667 4.57552083333333  L 21.4192708333333 2.625  C 21.5286458333333 2.515625  21.6744791666667 2.4609375  21.8567708333333 2.4609375  C 22.0147569444444 2.4609375  22.1666666666667 2.52170138888889  22.3125 2.64322916666667  C 23.8802083333333 4.08940972222222  24.8828125 5.12239583333333  25.3203125 5.7421875  C 25.4053819444444 5.83940972222222  25.4479166666667 5.97309027777778  25.4479166666667 6.14322916666667  C 25.4479166666667 6.2890625  25.3993055555556 6.42881944444444  25.3020833333333 6.5625  C 25.1197916666667 6.81770833333333  24.8098958333333 7.22178819444444  24.3723958333333 7.77473958333333  C 23.9348958333333 8.32769097222222  23.6067708333333 8.75607638888889  23.3880208333333 9.05989583333333  C 23.7039930555556 9.66753472222222  23.953125 10.2630208333333  24.1354166666667 10.8463541666667  L 27.4713541666667 11.3567708333333  C 27.6293402777778 11.3810763888889  27.7569444444444 11.45703125  27.8541666666667 11.5846354166667  Z " fill-rule="nonzero" fill="#7f7f7f" stroke="none" transform="matrix(1 0 0 1 -140 98 )" />
  </g>
</svg>